<svg xmlns="http://www.w3.org/2000/svg" width="24" height="24" viewBox="0 0 24 24">
    <path fill="#A2A7AF" d="M8.938 5.313H5.562A1.313 1.313 0 0 0 4.25 6.625v6.188a1.313 1.313 0 0 0 1.313 1.312h2.911l2.605 5.21a.75.75 0 0 0 .671.415 3 3 0 0 0 3-3v-.938h3.6a1.874 1.874 0 0 0 1.861-2.107l-.843-6.75a1.875 1.875 0 0 0-1.861-1.643h-8.57Zm.75 7.885V6.812h7.819a.375.375 0 0 1 .372.329l.844 6.75a.375.375 0 0 1-.372.421H14a.75.75 0 0 0-.75.75v1.688a1.5 1.5 0 0 1-1.07 1.436l-2.493-4.988Zm-3.938-.573V6.812h2.438v5.813H5.75Z" />
</svg>