<svg width="210" height="96" viewBox="0 0 210 96" fill="none" xmlns="http://www.w3.org/2000/svg"><path d="M32.624 58.647c-.422 1.509-.33 15.968 4.485 21.324 4.816 5.357 9.194 3.034 9.24-1.042.045-4.075-.382-15.33-.382-15.33l-13.343-4.952Z" fill="#FFB000"></path><path d="M45.16 78.16c.432-.119.825-.21 1.195-.284v1.053c-.046 4.076-4.417 6.399-9.239 1.042a12.427 12.427 0 0 1-2.072-3.416c2.966 1.452 6.563 2.556 10.115 1.606Z" fill="#fff"></path><path d="M40.776 80.37c.413.432.738.94.957 1.497.127.354.194.727.199 1.104" stroke="#333" stroke-linecap="round" stroke-linejoin="round"></path><path d="M44.016 79.868c.244.177.41.877.916 1.816.245.444 0 .501 0 .501" stroke="#333" stroke-linecap="round" stroke-linejoin="round"></path><path d="M19.462 19.688c-.865-.968-3.757-7.332-8.795-3.456-5.038 3.877-2.63 10.68-1.099 12.142 1.532 1.463 9.894-8.686 9.894-8.686Z" fill="#FFB000"></path><path d="M30.956 62.98s21.337 17.754 38.767 19.763c15.422 1.779 37.334 2.574 49.737-8.645 8.633-7.809 23.194-23.327 21.524-32.018H101.08c-26.358 0-36.871-11.345-45.38-19.587-8.772-8.498-21.793-11.817-42.235 0C-5.975 33.73 3.462 61.666 5.13 68.333c1.544 6.175-.529 8.413 2.032 14.389 1.25 2.917 6.856 4.517 10.457 2.24 2.945-1.862-.033-5.629 1.349-9.396.58-1.584 1.198-3.308 1.998-5.149 1.758-4.043 9.99-7.438 9.99-7.438Z" fill="#FFB000"></path><path d="M128.674 64.122c4.983-3.371 16.664-4.847 16.664-4.847l8.933-2.227-.217-4.81c-4.683-2.517-11.801-5.346-15.298-1.542 0 0-13.601 10.523-10.082 13.426Z" fill="#FFB000" stroke="#FFB000"></path><path d="M18.642 84.006c.845-1.42.188-3.18 0-5.243 0 0-.94 1.232-3.076 1.87-2.855.855-8.296-.774-9.619-2.292.473 5.061 2.585 6.732 5.769 7.508 2.541.62 5.495.563 6.926-1.843Z" fill="#fff"></path><path d="M14.925 83.78c.474.242.866.62 1.126 1.084.273.465.496.958.666 1.47" stroke="#333" stroke-linecap="round" stroke-linejoin="round"></path><path d="M17.464 82.261c.406.354.75.773 1.016 1.241.273.365.463.785.555 1.23" stroke="#333" stroke-linecap="round" stroke-linejoin="round"></path><path d="M139.542 32.445c-.442 1.808 4.14 4.785 2.665 5.912-.465.355-1.388.404-1.933.23 4.77 3.127 4.338 6.223 1.677 4.997.178 3.036-.935 5.796-1.786 7.094l-59.89 12.98c.278-.431.494-1.02.652-1.7-.999.66-3.023 1.763-3.127.894-.087-.738 1.605-2.345 2.852-3.383-1.125.764-2.992 1.435-3.82.035-1.007-1.706 3.258-6.606 3.258-6.606s-2.567 2.1-3.363.951c-.636-.918 2.678-10.472 2.678-10.472s-3.198 2.67-3.719 1.738c-.52-.933 2.99-4.075 2.734-6.225-.181-1.518-17.335-19.507-13.18-25.92 4.014-6.192 23.666 1.962 29.926 5.407 11.735-8.54 25.853-7.19 30.388-4.73 6.875-5.789 22.478-10.945 26.928-6.082 5.129 5.605-12.497 23.072-12.94 24.88Z" fill="#FFB000" stroke="#FFB000"></path><path d="M140.276 38.588c4.77 3.127 4.337 6.222 1.677 4.996.856.434 2.181 2.534 1.788 3.647s-3.704 1.2-3.704 1.2c-.749 4.485-3.561 9.213-8.551 11.973 0 3.095-11.843 14.6-19.688 18.443-7.846 3.842-20.42 3.907-25.145 4.925 0 0-2.095.489-15.368-.803C51.81 81.075 30.93 62.96 30.93 62.96s-.418.153-.785.395c.325-.388.797-.829 1.026-1.28.43-1.001 4.04-3.764 8.319-3.363 3.166.297 18.548 10.873 22.967 14.96 11.646 10.773 32.552 11.393 43.868 4.797 6.729-3.921 2.257-16.944 0-20.504-2.727-4.3-8.81-2.81-11.261-3.843-1.536-.647-.724-3.068-.724-3.068s-4.336 1.334-5.343-.372c-.947-1.602 4.11-4.48 4.73-4.824-2.491 1.352-5.212.138-3.712-1.568 1.513-1.719 9.607-6.158 18.231-4.299 1.526-5.814 8.823-10.46 16.183-12.364-1.947-4.726-8.731-14.646-17.616-15.202 3.678-.87 7.865-.76 10.879-.581 5.411 4.003 8.572 11.884 9.477 15.323 5.456-.393 10.599 2.527 13.108 11.422Z" fill="#fff" stroke="#fff" stroke-linejoin="round"></path><path d="M91.057 32.626c-1.847 1.107-2.95 4.588-3.27 6.19-7.3-1.86-24.54-18.726-21.203-24.764 2.876-5.204 19.93 1.207 25.008 9.47l-3.648-1.27c1.037 1.07 2.961 3.382 2.36 4.068-.75.857-3.451-2.488-4.202-1.631-.75.857 5.256 4.746 4.664 5.499-.593.753-3.584-1.45-4.032-.202-.359.998 2.732 2.176 4.323 2.64Z" fill="#FFD4E9" stroke="#FFD4E9" stroke-linecap="round" stroke-linejoin="round"></path><path d="M151.601 8.815c2.438 5.076-7.243 15.644-12.389 20.293-1.216-5.81-4.277-7.971-5.655-8.325 1.63-.74 4.768-2.417 4.28-3.21-.487-.793-2.945-.003-4.113.49.987-.635 2.938-2.117 2.838-2.956-.085-.709-2.092-.226-3.547.254-.264.099-.512.185-.728.256.214-.08.461-.168.728-.256 1.495-.56 3.508-1.516 3.306-2.27-.236-.888-4.761-.142-6.994.343 6.409-3.655 19.836-9.695 22.274-4.619Z" fill="#FFD4E9" stroke="#FFD4E9" stroke-linecap="round" stroke-linejoin="round"></path><path d="M108.476 24.45c.833-.864.967-3.001.329-3.311-.769-.374-3.534 2.486-3.155 3.246.378.76 2.194.722 2.826.066Z" fill="#fff"></path><path d="M129.792 21.15c-.908-.558-1.254-2.314-.566-2.595.753-.307 3.352 1.895 2.963 2.471-.284.421-1.261.822-2.397.124Z" fill="#fff"></path><path d="m86.923 24.911 4.06 4.757m-3.342 1.272 3.636 1.19" stroke="#333" stroke-linecap="round" stroke-linejoin="round"></path><path d="m134.459 19.883 3.604-1.591m-5.075-.757 3.724-2.222" stroke="#333" stroke-linecap="round" stroke-linejoin="round"></path><path d="M83.527 81.814c5.417 4.584 21.656 9.56 27.589 8.623 3.327-.525 3.589-7.193.528-9.681-3.062-2.489-14.39-6.267-14.39-6.267l-13.727 7.325Z" fill="#FFB000"></path><path d="M111.114 90.438c3.327-.526 3.589-7.194.528-9.682-.587-.477-1.477-1.002-2.533-1.537 0 0-1.699 1.877-2.483 3.522-.67 1.407-1.297 3.053-2.726 4.162-1.589 1.231-6.87 1.263-6.87 1.263 5.104 1.862 11.475 2.684 14.084 2.272Z" fill="#fff"></path><path d="M116.821 43.124c.684.337 1.316.684 1.902 1.034 4.834 2.016 10.541.161 11.758-4.274 1.791 2.147 4.63 1.477 4.63 1.477-1.665 3.818-1.424 8.47-5.48 9.427-3.691.87-4.974-3.082-10.908-6.63a10.529 10.529 0 0 1-1.902-1.034Z" fill="#DD4A4A" stroke="#333" stroke-linecap="round" stroke-linejoin="round"></path><path d="M126.023 40.935c6.777-.313 14.656 7.676 8.548 10.83-6.107 3.152-6.802-5.247-11.359-4.6-2.292-2.457-5.204-3.911-5.204-3.911 4.683-1.11 8.015-2.319 8.015-2.319Z" fill="#F1706C" stroke="#333" stroke-linecap="round" stroke-linejoin="round"></path><path d="M131.006 45.929a6.77 6.77 0 0 0-2.775-2.108 10.722 10.722 0 0 0-3.034-.635" stroke="#333" stroke-linecap="round" stroke-linejoin="round"></path><path d="M119.203 44.111c-5.013-1.777-6.452-4.77-6.889-4.939l26.354-5.035c2.793 5.166-5.203 9.397-8.464 5.608-1.466 4.506-7.819 5.494-11.001 4.366Z" fill="#fff"></path><path d="M110.611 39.694s1.265-.69 1.703-.522m0 0c.437.17 1.876 3.162 6.889 4.94 3.182 1.127 9.535.14 11.001-4.367 3.261 3.789 11.257-.442 8.464-5.608l-26.354 5.035Z" stroke="#fff"></path><path d="M110.961 39.97s1.266-.69 1.703-.521c.438.168 1.877 3.161 6.89 4.938 3.182 1.128 9.535.14 11-4.366 3.261 3.79 11.257-.442 8.465-5.608" stroke="#333" stroke-linecap="round" stroke-linejoin="round"></path><path d="M123.748 32.776c.518 1.925 4.534 2.423 6.206 3.345 1.407-1.97 4.535-3.944 3.545-5.868-1.28-2.488-10.398.118-9.751 2.523Z" fill="#333" stroke="#333" stroke-linecap="round" stroke-linejoin="round"></path><path d="M129.403 31.334c-.062.618-1.118.285-1.84.445-.838.186-1.913.793-2.154.427-.122-.185 1.001-1.078 2.044-1.347 1.034-.266 1.989.09 1.95.475Z" fill="#fff" stroke="#fff" stroke-linecap="round" stroke-linejoin="round"></path><path d="M132.11 55.29a6.845 6.845 0 0 1-6.382 2.675c-3.134-.294-5.452-3.258-5.452-3.258" stroke="#333" stroke-linecap="round" stroke-linejoin="round"></path><path d="M116.625 28.528c-1.352-1.621-4.677-2.526-7.081 3.22" stroke="#333" stroke-linecap="round" stroke-linejoin="round"></path><path d="M129.288 24.767c.542-1.371 2.545-3.097 6.226.963" stroke="#333" stroke-linecap="round" stroke-linejoin="round"></path><path d="M109.795 88.195a4.794 4.794 0 0 1 1.518.882c.699.612 1.034.986 1.034.986" stroke="#333" stroke-linecap="round" stroke-linejoin="round"></path><path d="M111.239 85.56s.685.535 1.438 1.206c.387.323.722.703.993 1.129" stroke="#333" stroke-linecap="round" stroke-linejoin="round"></path><path d="M209.331 88.436v2.005l-49.91 4.744-21.627-8.925c-2.068-4.779-2.068-8.554 0-13.333l45.418-2.516 26.119 5.812v1.794l-4.619.386.226 10.428 4.393-.395Z" fill="#fff"></path><path d="m159.421 95.185 49.91-4.744v-2.005l-4.393.395-.226-10.428 4.619-.386v-1.794m-49.91 18.962c-1.619-6.084-1.619-9.495 0-15.578m0 15.578-21.627-8.925c-2.068-4.779-2.068-8.554 0-13.333m0 0 45.418-2.516 26.119 5.812m-71.537-3.296 21.627 6.68m49.91-3.384-49.91 3.384" stroke="#26A9E0" stroke-linecap="round" stroke-linejoin="round"></path><path d="M161.671 92.757c-1.005-4.147-.969-6.771 0-10.927l45.67-3.641c-1.513 3.965-1.547 6.447 0 10.42l-45.67 4.148Z" fill="#fff"></path><path d="m163.67 84.335 30.519-2.311m-12.16 4.469 22.789-2.158m-43.147-2.505c-.969 4.156-1.005 6.78 0 10.927l45.67-4.148c-1.547-3.973-1.513-6.456 0-10.42l-45.67 3.641Z" stroke="#26A9E0" stroke-linecap="round" stroke-linejoin="round"></path><path d="M132.78 74.969v2.005l49.909 4.744 5.378-2.22c.687-.283 1.287-.54 1.974-.822 3.685-1.521 7.445-3.064 10.134-4.174l1.572-.65 2.569-1.06c2.068-4.778 2.068-8.553 0-13.332l-45.418-2.516-26.118 5.812v1.794l4.618.386-.225 10.428-4.393-.395Z" fill="#fff"></path><path d="m182.689 81.718-49.909-4.744V74.97l4.393.395.225-10.428-4.618-.386v-1.794m49.909 18.962c1.619-6.084 1.619-9.495 0-15.578m0 15.578 5.378-2.22m16.249-20.038c2.068 4.779 2.068 8.554 0 13.333l-2.569 1.06m2.569-14.393-45.418-2.516-26.118 5.812m71.536-3.296-2.569.794m-68.967 2.502 49.909 3.384m0 0 5.378-1.662m13.68 9.375c1.619-5.311 1.619-8.289 0-13.6m0 13.6-1.572.649m1.572-14.248-1.572.485m0 13.763c1.618-5.375 1.618-8.388 0-13.763m0 13.763c-2.689 1.11-6.449 2.653-10.134 4.174m10.134-17.937-10.134 3.13m-1.974 15.63c1.619-5.866 1.619-9.155 0-15.02m0 15.02c.687-.284 1.287-.54 1.974-.823m-1.974-14.198 1.974-.609m0 14.807c1.618-5.783 1.618-9.025 0-14.807" stroke="#26A9E0" stroke-linecap="round" stroke-linejoin="round"></path><path d="M180.438 79.29c1.006-4.147.969-6.771 0-10.927l-45.67-3.642c1.513 3.965 1.548 6.448 0 10.42l45.67 4.149Z" fill="#fff"></path><path d="m178.44 70.868-30.519-2.311m12.159 4.469-22.789-2.158m43.147-2.505c.969 4.156 1.006 6.78 0 10.927l-45.67-4.148c1.548-3.973 1.513-6.456 0-10.42l45.67 3.641Z" stroke="#26A9E0" stroke-linecap="round" stroke-linejoin="round"></path><path d="M146.354 75.443s.07 1.929 1.661 3.197c.031-2.794.976-5.06 2.024-6.635l-4.809-.413c-.846 2.327-.989 4.913-.199 6.028.852-1.766 1.323-2.177 1.323-2.177Z" fill="#fff" stroke="#26A9E0" stroke-linecap="round" stroke-linejoin="round"></path><path d="M155.494 61.054c3.061-.248 3.374-4.551 1.895-6.635-.637-.896-2.036-1.87-3.424-2.687 0 0-.55 1.796-1.301 2.687-1.074 1.275-3.657 1.768-5.095 2.61-1.823 1.068-3.239 2.485-3.239 2.485 3.641 1.118 7.07 1.873 11.164 1.54Z" fill="#fff"></path><path d="M147.25 49.1c5.745.904 9.501 4.423 10.137 5.32 1.479 2.083 1.166 6.386-1.894 6.634-4.095.333-7.524-.422-11.164-1.54m-12.39 1.099c-2.707 4.415-10.777 14.465-21.401 19.342m-9.689-6.013c.195.668 1.554 2.405 5.429 4.009 4.845 2.004 7.768 3.925 7.517 8.018-.25 4.093-2.255 4.51-3.925 4.51-1.504 0-13.371-1.083-22.732-6.36m-2.994-1.908a31.82 31.82 0 0 0 2.994 1.907m0 0c-16.917 1.569-30.7-3.784-40.416-9.406m73.68-63.12c-4.744-.7-16.624-.216-25.303 6.316-2.955-1.283-8.939-3.757-12.765-4.97-4.783-1.517-13.435-4.697-17.171 0-3.954 4.97 6.439 21.012 18.64 29.484m56.281 6.678c1.415-.186 4.245-.857 4.245-2.058 0-1.202-1.606-2.95-2.409-3.672m0-4.424c1.035.825 2.966 2.864 2.409 4.424M13.322 22.653s-1.466.765-4.671 3.875m29.536 42.844c5.33 3.666 8.535 5.34 8.535 5.34m-24.585-5.939c-2.571 2.4-3.436 6.494-3.547 8.24.909 2.006 1.563 5.858-1.222 8.087-2.35 1.88-8.275 1.248-10.625-2.89-2.351-4.137-1.04-7.782-1.599-12.155C3.692 58.71.26 51.815 1.896 40.95c1.112-7.387 4.123-11.87 6.755-14.423m0 0c-.572-1.356-1.372-4.749 0-7.47 1.715-3.402 4.5-4.692 6.845-3.519 1.877.938 3.128 3.128 3.52 4.106m27.706 55.067c.109 2.5 1.032 6.521-1.08 7.927-2.113 1.405-7.899 1.112-10.29-5.117a38.273 38.273 0 0 1-1.15-3.58" stroke="#333" stroke-linecap="round" stroke-linejoin="round"></path><path d="M154.996 58.674c.712.219 1.359.611 1.883 1.141.624.762.616.912.616.912" stroke="#333" stroke-linecap="round" stroke-linejoin="round"></path><path d="M156.158 56.037c.691.424 1.305.96 1.817 1.589.224.326.401.682.527 1.058" stroke="#333" stroke-linecap="round" stroke-linejoin="round"></path></svg>