<svg xmlns="http://www.w3.org/2000/svg" width="24" height="24" viewBox="0 0 24 24">
    <path fill="#A2A7AF" d="M8.938 18.688H5.562a1.313 1.313 0 0 1-1.312-1.313v-6.188a1.313 1.313 0 0 1 1.313-1.312h2.911l2.605-5.21a.75.75 0 0 1 .671-.415 3 3 0 0 1 3 3v.938h3.6a1.875 1.875 0 0 1 1.861 2.107l-.843 6.75a1.875 1.875 0 0 1-1.861 1.642h-8.57Zm.75-7.886v6.386h7.819a.375.375 0 0 0 .372-.329l.844-6.75a.375.375 0 0 0-.372-.421H14a.75.75 0 0 1-.75-.75V7.25a1.5 1.5 0 0 0-1.07-1.437l-2.493 4.99Zm-3.938.573v5.813h2.438v-5.813H5.75Z" />
</svg>