<svg width="246" height="161" viewBox="0 0 246 161" fill="none" xmlns="http://www.w3.org/2000/svg" class="error-page__stub-image"><g clip-path="url(#a)"><path d="m179.362 143.782.837 5.055s-112.448 11.9-117.161 11.9c-2.519 0-22.69-7.059-37.997-12.55a2757.86 2757.86 0 0 1-17.515-6.353s-6.043-13.213 0-24.902l10.008-.489 7.507-.366 136.81-6.681 14.744 4.259v4.452l-11.093.956v16.249l13.86 8.47Z" fill="#fff"></path><path d="m179.362 143.782.837 5.055s-112.448 11.9-117.161 11.9m116.324-16.955-13.86-8.47v-16.249l11.093-.956v-4.452m2.767 30.127-113.74 11.532m-2.584 5.423c-2.519 0-22.69-7.059-37.997-12.55m37.997 12.55c-3.624-6.002-8.64-20.995-3.96-38.15l117.517-8.932m0 0-14.744-4.259-136.81 6.681m0 32.11c-1.387-5.072-3.33-18.594 0-32.11m0 32.11a2757.86 2757.86 0 0 1-8.926-3.22m8.926-28.89-7.507.366m-1.419 28.524c-5.159-1.872-8.589-3.133-8.589-3.133s-6.043-13.213 0-24.902l10.008-.489m-1.419 28.524c-1.122-5.602-2.41-19.15 1.42-28.524" stroke="#2C7EDC" stroke-linecap="round" stroke-linejoin="round"></path><path d="M65.332 155.384c-4.282-6.576-3.186-21.729-2.103-28.483l108.44-8.332c-2.138 9.479-2.285 20.212 3.435 25.564L65.332 155.384Z" fill="#fff"></path><path d="m68.772 133.782 72.452-5.734m-28.866 11.087 54.1-5.353m-103.23-6.881c-1.083 6.754-2.178 21.907 2.104 28.483l109.772-11.251c-5.72-5.352-5.573-16.085-3.435-25.564l-108.44 8.332Z" stroke="#2C7EDC" stroke-linecap="round" stroke-linejoin="round"></path><path d="M94.437 154.959c3.02-10.667-.662-19.715-3.178-22.986l11.777-.932c4.299 6.956 3.096 20.363-1.009 23.598-.763-4.664-1.571-5.933-1.571-5.933s-1.478 4.409-6.019 6.253Z" fill="#fff" stroke="#2C7EDC" stroke-linecap="round" stroke-linejoin="round"></path><path d="m1.95 111.549-.817 4.775s112.014 10.731 116.612 10.731c1.054 0 5.302-1.404 10.997-3.476 4.983-1.813 11.075-4.137 17.105-6.48a2087.1 2087.1 0 0 0 14.114-5.55 2514.15 2514.15 0 0 0 12.329-4.935s5.896-12.479 0-23.519l-5.246-.138-7.083-.186-14.114-.37-17.105-.45-109.706-2.879L4.65 83.095V87.3l10.823.903v15.347l-13.523 8Z" fill="#fff"></path><path d="m1.95 111.549-.817 4.775s112.014 10.731 116.612 10.731M1.95 111.549l13.523-8V88.202L4.65 87.3v-4.204m-2.7 28.454 110.974 10.892m4.821 4.614c3.536-5.669 8.429-19.829 3.863-36.032L4.65 83.095m113.095 43.96c1.054 0 5.302-1.404 10.997-3.476M4.65 83.095l14.385-4.023 109.707 2.88m39.562 26.267c2.493-1 3.986-1.605 3.986-1.605s5.896-12.479 0-23.519l-5.246-.138m1.26 25.262c1.142-6.26 2.49-20.076-1.26-25.262m1.26 25.262a2514.15 2514.15 0 0 1-8.343 3.33m7.083-28.592-7.083-.186m0 28.778c1.278-5.417 3.067-18.756 0-28.778m0 28.778a2087.1 2087.1 0 0 1-14.114 5.55m14.114-34.328-14.114-.37m0 34.698c2.285-6.389 5.484-22.273 0-34.698m0 34.698c-6.03 2.343-12.122 4.667-17.105 6.48m17.105-41.178-17.105-.45m0 41.628c2.814-8.762 6.755-29.354 0-41.627" stroke="#2C7EDC" stroke-linecap="round" stroke-linejoin="round"></path><path d="M115.049 122.507c4.227-6.211 3.145-20.523 2.076-26.902L10.08 87.736c2.11 8.952 2.255 19.09-3.39 24.145l108.359 10.626Z" fill="#fff"></path><path d="m111.652 102.105-71.519-5.417m28.495 10.472-53.404-5.055m101.901-6.5c1.069 6.379 2.151 20.691-2.076 26.902L6.689 111.881c5.646-5.055 5.5-15.193 3.391-24.145l107.045 7.869Z" stroke="#2C7EDC" stroke-linecap="round" stroke-linejoin="round"></path><path d="M28.117 111.919s.159 4.389 3.78 7.274c.071-6.359 2.222-11.515 4.606-15.097l-10.943-.941c-1.925 5.296-2.25 11.181-.454 13.718 1.94-4.02 3.01-4.954 3.01-4.954Z" fill="#fff" stroke="#2C7EDC" stroke-linecap="round" stroke-linejoin="round"></path><path d="M161.128 93.207c-1.227-8.63 3.699-11.29 6.316-11.54l20.923 11.208c-3.299 10.023-10.848 30.242-14.658 30.928-4.126.743-9.395-14.665-11.726-25.813a75.8 75.8 0 0 1-.855-4.783Z" fill="#FFB000"></path><path d="M39.945 30.248c2.81 5.135 0 10.304 0 10.304 1.208-1.124 2.436-2.088 3.68-3.103.242-13.994 7.168-21.306 13.01-20.739 4.673.454 3.933 7.366 2.978 10.766 19.739-9.16 40.115-8.701 49.881-6.654.57-4.3 3.476-12.788 10.543-12.334 7.067.454 7.409 9.83 6.697 14.46l9.973 1.134c-1.425-3.875 0-11.848 6.554-12.192 8.662-.453 10.2 11.872 10.913 19.292.899-1.432 2.701-2.718 7.361-3.749 5.826-1.288 13.162 7.454 19.204 7.454 6.041 0 9.822-3.705 19.801 1.67 10.886-5.331 25.569 4.326 22.687 13.51-1.633 5.205-10.986 7.622-15.442 14.904-3.969 6.486-2.557 15.921-12.698 26.441-5 5.187-11.841 6.427-17.634 6.137-3.607-.18-6.808-.953-8.905-1.735-7.646 8.931-23.993 26.567-28.21 25.66-4.567-.983-3.467-19.093-1.146-31.569a98.494 98.494 0 0 1-7.02-2.876s-6.404 2.375-12.425 1.067c-6.021-1.309-9.479-4.292-15.952-5.605-9.377-1.902-15.73-.68-24.506 0-10.97.85-19.952 4.538-33.269 4.538-11.176 0-22.68-2.266-30.296-7.411-3.782 3.75-10.287 6.263-13.496 3.75-3.208-2.513 0-12.454 4.674-16.286-1.986-5.66-2.272-8.572 0-18.273 2.2-9.394 10.746-17.493 10.746-17.493s-7.08-6.382-3.987-11.064c2.601-3.936 15.641-8.58 19.512-4.3 2.366 2.617 0 5.84 0 5.84 1.66 3.695 4.458 4.228 6.772 8.456Z" fill="#FFB000"></path><path d="M183.92 74.861c1.314.593 2.415 2.913 1.843 3.543-.69.76-5.045-1.195-4.962-2.21.083-1.016 2.123-1.782 3.119-1.333Z" fill="#fff"></path><path d="m126.733 22.948 9.974 1.134c9.778 1.112 17.467 7.1 17.467 7.1.899-1.432 2.701-2.718 7.361-3.749 5.826-1.288 13.162 7.454 19.204 7.454 6.041 0 9.822-3.705 19.801 1.67 10.886-5.331 25.569 4.326 22.687 13.51-1.633 5.205-10.986 7.622-15.442 14.904-3.969 6.486-2.557 15.921-12.698 26.441-5 5.187-11.841 6.427-17.635 6.137 7.365-2.022 25.421-13.385 24.327-37.374 0-2.119-11.543 2.76-19.525-5.519-5.527-5.732-13.602-9.925-20.108-11.783-9.532-2.722-16.346 2.265-18.885 5.936-8.475 12.253 3.371 18.273-11.089 38.22 0 0-6.404 2.375-12.425 1.067 20.59-21.014 4.258-39.706 6.986-65.148Zm-67.12 4.528c19.739-9.16 40.115-8.701 49.881-6.654-7.49 6.654-14.23 2.947-27.566 6.654-13.336 3.707-22.315 15.104-30.682 18.296-5.33 2.034-12.017.813-14.616 0 1.316-1.78 2.797-3.927 3.315-5.22 1.208-1.124 2.435-2.088 3.68-3.103 5.122-4.173 10.53-7.44 15.988-9.973Zm-45.952-7.224c2.601-3.936 15.64-8.58 19.512-4.3 2.366 2.617 0 5.84 0 5.84a9.61 9.61 0 0 0 1.116 1.887c-1.873 5.575-14.901 2.889-21.181.849-.385-1.438-.338-2.927.553-4.276Zm97.362-4.908c1.578-3.66 4.415-7.151 9.014-6.856 4.92.316 6.58 4.955 6.895 9.308-6.895 0-11.998-3.518-15.909-2.452Zm25.264 4.158c.427-3.607 2.511-7.378 6.974-7.612 5.463-.286 8.092 4.51 9.468 9.953-3.443 1.438-13.537 0-16.442-2.341Zm-91.104 7.931C47.6 20.026 52.402 16.3 56.635 16.71c3.252.316 3.882 3.759 3.643 6.969-4.192-1.887-11.659 6.57-15.095 3.754Z" fill="#fff"></path><path d="M39.945 40.552c1.208-1.124 2.435-2.089 3.68-3.103m-3.68 3.103c1.105-1.87 1.715-6.374 0-9.791-2.364-4.707-5.339-5.78-6.772-8.97 0 0 2.366-3.222 0-5.84-3.871-4.28-16.91.364-19.512 4.3-.891 1.35-.938 2.839-.553 4.277m26.837 16.024c-1.006 2.514-5.656 8.257-5.656 8.257m123.858-14.973c-.779-2.226 0-6.403 3.388-6.403 5.967 0 13.162 7.454 19.204 7.454 6.041 0 9.822-3.706 19.801 1.67m-63.833-12.475-9.974-1.134s0-2.505.199-5.152c.409-5.464-1.975-8.993-6.895-9.308-4.599-.296-7.535 1.783-9.014 6.856-.858 2.944-1.529 5.478-1.529 5.478m27.213 3.26s-.701-2.806-.42-4.58c.631-3.982 2.511-7.378 6.974-7.612 5.463-.286 8.092 4.51 9.468 9.953m-16.022 2.24c10.537 1.79 16.235 5.838 17.767 7.638m-44.98-10.9c-9.766-2.046-30.142-2.506-49.88 6.655-5.458 2.532-10.867 5.8-15.988 9.973m65.868-16.627s-3.233 4.736-14.88 4.736M43.625 37.45s-.661-3.355 1.558-10.016c2.22-6.661 7.219-11.134 11.452-10.723 3.252.316 3.882 3.758 3.643 6.969M200.54 36.557c-2.709 1.326-5.03 4.35-9.138 3.594-4.107-.757-4.962 2.722-4.962 2.722m14.1-6.316c10.886-5.331 25.569 4.325 22.687 13.51-1.633 5.205-10.986 7.621-15.442 14.903-3.969 6.486-2.557 15.922-12.698 26.442-2.208 2.29-4.775 3.811-7.452 4.77-3.386 1.214-6.947 1.529-10.183 1.367M131.076 87.24s-5.308 2.163-11.329.855m11.329-.855 7.771 2.564m-7.771-2.564c4.435-2 9.05-11.86 9.05-19.506m11.571 7.647c-3.451-1.165-5.962-.715-9.26 3.043-1.232 1.404-2.554 5.848-3.59 11.38m32.018-1.709c2.022 4.777-3.104 8.682-7.899 13.874-8.792 9.521-18.155 20.042-22.194 19.562-5.173-.613-4.301-19.036-1.925-31.727m15.119-41.476c-8.195 2.557-1.874 7.275-1.874 7.275s-13.643 5.806 0 7.883" stroke="#0D0C22" stroke-linecap="round" stroke-linejoin="round"></path><path d="M215.181 48.576c-.142-2.416 6.133-2.456 3.98-8.883 1.605.623 6.206 4.986 5.659 8.883-.548 3.896-9.461 3.02-9.639 0Z" fill="#0D0C22" stroke="#000" stroke-linecap="round" stroke-linejoin="round"></path><path d="M191.255 67.899c-2.078.606-6.387.573-7.002-4.413" stroke="#0D0C22" stroke-linecap="round"></path><path d="M243.544 38.028c-2.288 7.88-12.109 7.944-16.733 6.99 2.287-.593 2.93-2.788 2.965-3.812-2.965-2.224-5.613-11.439.741-14.616 6.355-3.177 15.887 1.589 13.027 11.438Z" fill="#fff" stroke="#2C7EDC" stroke-linecap="round" stroke-linejoin="round"></path><path d="M143.328 81.486c2.335-4.435 5.954-4.422 7.472-3.994 2.35 6.401 6.738 7.904 8.638 7.856-2.011.94-5.642 3.093-4.086 4.183 1.367.956 4.084-.117 5.714-1.008a10.3 10.3 0 0 1 .609-.354c-.178.11-.383.23-.609.354-2.328 1.455-6.3 4.956-5.02 6.947 1.4 2.18 6.742-.74 8.758-1.887-2.684 5.532-20.891 25.776-24.194 24.602-4.178-1.486.384-32.263 2.718-36.699Z" fill="#FFD4E9" stroke="#FFD4E9" stroke-linecap="round" stroke-linejoin="round"></path><path d="M198.064 23.392h4.264l-4.264 4.442h4.264m4.02-13.893h6.317l-6.317 6.581h6.317M215.179 0h8.584l-8.584 8.942h8.584M12.045 72.578c.537 2.448 1.873 4.677 3.905 6.605m68.375 2.866c-10.426 0-27.733 5.69-46.824 4.567-9.7-.57-17.213-3.316-21.551-7.433m0 0c-2.788 2.564-9.358 7.029-13.341 4.374-3.562-2.375-.807-14.106 4.315-16.595m111.02-54.242c.325-1.08.841-3.636.304-5.226m4.354 6.018c.631-.9 1.782-3.16 1.34-5.007m14.337 4.026c1.14.79 2.967 3.995 3.072 5.888m1.559-7.473c1.309 1.212 3.232 5.206 2.795 7.096M26.511 19.643c3.608-1.02 4.174-3.884 4.174-6.473m.555 6.473c.863-.162 3.653-2.848 3.653-3.884M54.17 21.8c.809-1.026 3.034-4.487 2.775-6.04m1.159 6.04c1.025-.702 2.17-3.151 2.299-4.445" stroke="#0D0C22" stroke-linecap="round" stroke-linejoin="round"></path></g><defs><clipPath id="a"><path fill="#fff" d="M0 0h246v161H0z"></path></clipPath></defs></svg>